<mxfile host="65bd71144e">
    <diagram id="j7FULMK95PmBawMinwfK" name="Page-1">
        <mxGraphModel dx="1139" dy="747" grid="1" gridSize="10" guides="1" tooltips="1" connect="1" arrows="1" fold="1" page="1" pageScale="1" pageWidth="850" pageHeight="1100" math="0" shadow="0">
            <root>
                <mxCell id="0"/>
                <mxCell id="1" parent="0"/>
                <mxCell id="2" value="&lt;h1&gt;SceneID&lt;/h1&gt;&lt;p&gt;Every scene has SceneID that is saved in GameHandler.&lt;/p&gt;&lt;p&gt;Those IDs will be used for identifying which scene to used, when the last time the player travel to, or which scene to teleport to.&lt;/p&gt;" style="text;html=1;strokeColor=none;fillColor=none;spacing=5;spacingTop=-20;whiteSpace=wrap;overflow=hidden;rounded=0;" parent="1" vertex="1">
                    <mxGeometry x="70" y="90" width="250" height="160" as="geometry"/>
                </mxCell>
                <mxCell id="3" value="&lt;h1&gt;TeleportID&lt;/h1&gt;&lt;p&gt;The ID, inherited from the ID used in CheckpointID, and also used by LevelTeleportHandler. This object stores its ID and also handles the teleporatation triggers with SceneID to its configuration.&lt;/p&gt;&lt;p&gt;The object also handles instant teleportation when scene initialization (by fetching TeleportID by GameHandler from LevelCheckpointDatabase). The instant teleportation is based on which last SceneID the player travel from.&lt;br&gt;&lt;/p&gt;" style="text;html=1;strokeColor=none;fillColor=none;spacing=5;spacingTop=-20;whiteSpace=wrap;overflow=hidden;rounded=0;" parent="1" vertex="1">
                    <mxGeometry x="70" y="380" width="320" height="240" as="geometry"/>
                </mxCell>
                <mxCell id="4" value="&lt;h1&gt;IPersistance&lt;/h1&gt;&lt;p&gt;Data-data pada Scene, seperti SceneID CheckpointID/TeleportID disimpan dalam bentuk IPersistance yang akan dipakai ketika Game melakukan &quot;Save&quot;.&lt;/p&gt;" style="text;html=1;strokeColor=none;fillColor=none;spacing=5;spacingTop=-20;whiteSpace=wrap;overflow=hidden;rounded=0;" parent="1" vertex="1">
                    <mxGeometry x="70" y="710" width="310" height="160" as="geometry"/>
                </mxCell>
                <mxCell id="5" value="&lt;h1&gt;CheckpointID&lt;/h1&gt;&lt;p&gt;ID for checkpoint objects used for when which checkpoint the player has entered.&lt;/p&gt;" style="text;html=1;strokeColor=none;fillColor=none;spacing=5;spacingTop=-20;whiteSpace=wrap;overflow=hidden;rounded=0;" parent="1" vertex="1">
                    <mxGeometry x="70" y="270" width="310" height="90" as="geometry"/>
                </mxCell>
                <mxCell id="6" value="" style="rounded=0;whiteSpace=wrap;html=1;" parent="1" vertex="1">
                    <mxGeometry x="510" y="160" width="630" height="220" as="geometry"/>
                </mxCell>
                <mxCell id="7" value="Scene1" style="text;html=1;strokeColor=none;fillColor=none;align=center;verticalAlign=middle;whiteSpace=wrap;rounded=0;" parent="1" vertex="1">
                    <mxGeometry x="795" y="190" width="60" height="30" as="geometry"/>
                </mxCell>
                <mxCell id="8" value="Teleport&lt;br&gt;&lt;br&gt;CheckpointID: &quot;tele1&quot;&lt;br&gt;FromScene: &quot;Scene2&quot;&lt;br&gt;TargetScene: &quot;Scene2&quot;" style="rounded=0;whiteSpace=wrap;html=1;" parent="1" vertex="1">
                    <mxGeometry x="570" y="250" width="180" height="80" as="geometry"/>
                </mxCell>
                <mxCell id="10" value="Checkpoint&lt;br&gt;&lt;br&gt;CheckpointID: &quot;chk1&quot;" style="rounded=0;whiteSpace=wrap;html=1;" parent="1" vertex="1">
                    <mxGeometry x="890" y="250" width="180" height="60" as="geometry"/>
                </mxCell>
                <mxCell id="11" value="" style="rounded=0;whiteSpace=wrap;html=1;" parent="1" vertex="1">
                    <mxGeometry x="1190" y="160" width="630" height="220" as="geometry"/>
                </mxCell>
                <mxCell id="12" value="Scene2" style="text;html=1;strokeColor=none;fillColor=none;align=center;verticalAlign=middle;whiteSpace=wrap;rounded=0;" parent="1" vertex="1">
                    <mxGeometry x="1475" y="190" width="60" height="30" as="geometry"/>
                </mxCell>
                <mxCell id="13" value="Teleport&lt;br&gt;&lt;br&gt;CheckpointID: &quot;tele1&quot;&lt;br&gt;FromScene: &quot;Scene1&quot;&lt;br&gt;TargetScene: &quot;Scene1&quot;" style="rounded=0;whiteSpace=wrap;html=1;" parent="1" vertex="1">
                    <mxGeometry x="1250" y="250" width="180" height="80" as="geometry"/>
                </mxCell>
                <mxCell id="14" value="Checkpoint&lt;br&gt;&lt;br&gt;CheckpointID: &quot;chk1&quot;" style="rounded=0;whiteSpace=wrap;html=1;" parent="1" vertex="1">
                    <mxGeometry x="1570" y="250" width="180" height="60" as="geometry"/>
                </mxCell>
                <mxCell id="16" value="" style="endArrow=classic;startArrow=classic;html=1;exitX=0.5;exitY=1;exitDx=0;exitDy=0;entryX=0.5;entryY=1;entryDx=0;entryDy=0;curved=1;" parent="1" source="8" target="13" edge="1">
                    <mxGeometry width="50" height="50" relative="1" as="geometry">
                        <mxPoint x="1130" y="450" as="sourcePoint"/>
                        <mxPoint x="1180" y="400" as="targetPoint"/>
                        <Array as="points">
                            <mxPoint x="980" y="580"/>
                        </Array>
                    </mxGeometry>
                </mxCell>
                <mxCell id="17" value="Connected teleportation due to the interconnected configuration of the ID values" style="text;html=1;strokeColor=none;fillColor=none;align=center;verticalAlign=middle;whiteSpace=wrap;rounded=0;" parent="1" vertex="1">
                    <mxGeometry x="865" y="480" width="230" height="30" as="geometry"/>
                </mxCell>
                <mxCell id="19" value="PersistanceContext" style="rounded=0;whiteSpace=wrap;html=1;" parent="1" vertex="1">
                    <mxGeometry x="1630" y="730" width="185" height="60" as="geometry"/>
                </mxCell>
                <mxCell id="20" value="GameHandler" style="rounded=0;whiteSpace=wrap;html=1;" parent="1" vertex="1">
                    <mxGeometry x="1740" y="475" width="210" height="60" as="geometry"/>
                </mxCell>
                <mxCell id="21" value="" style="endArrow=classic;html=1;curved=1;entryX=0.617;entryY=0.999;entryDx=0;entryDy=0;entryPerimeter=0;exitX=0.406;exitY=-0.006;exitDx=0;exitDy=0;exitPerimeter=0;" parent="1" source="20" target="14" edge="1">
                    <mxGeometry width="50" height="50" relative="1" as="geometry">
                        <mxPoint x="1770" y="580" as="sourcePoint"/>
                        <mxPoint x="1680" y="310" as="targetPoint"/>
                    </mxGeometry>
                </mxCell>
                <mxCell id="22" value="" style="endArrow=classic;html=1;curved=1;exitX=0.674;exitY=1.032;exitDx=0;exitDy=0;exitPerimeter=0;entryX=0.44;entryY=0.006;entryDx=0;entryDy=0;entryPerimeter=0;" parent="1" source="14" target="20" edge="1">
                    <mxGeometry width="50" height="50" relative="1" as="geometry">
                        <mxPoint x="1770" y="580" as="sourcePoint"/>
                        <mxPoint x="2000" y="580" as="targetPoint"/>
                    </mxGeometry>
                </mxCell>
                <mxCell id="23" value="GameHandler have checkpoint data of the last checkpoint the Player entered" style="text;html=1;strokeColor=none;fillColor=none;align=center;verticalAlign=middle;whiteSpace=wrap;rounded=0;" parent="1" vertex="1">
                    <mxGeometry x="1810" y="410" width="170" height="30" as="geometry"/>
                </mxCell>
                <mxCell id="24" value="GameHandler can instantly teleport based on the persistance data on &quot;Game Load&quot;" style="text;html=1;strokeColor=none;fillColor=none;align=center;verticalAlign=middle;whiteSpace=wrap;rounded=0;" parent="1" vertex="1">
                    <mxGeometry x="1560" y="400" width="170" height="30" as="geometry"/>
                </mxCell>
                <mxCell id="25" value="" style="endArrow=classic;html=1;curved=1;exitX=0.582;exitY=0.002;exitDx=0;exitDy=0;exitPerimeter=0;entryX=0.437;entryY=1;entryDx=0;entryDy=0;entryPerimeter=0;" parent="1" source="19" target="20" edge="1">
                    <mxGeometry width="50" height="50" relative="1" as="geometry">
                        <mxPoint x="1650" y="640" as="sourcePoint"/>
                        <mxPoint x="1700" y="590" as="targetPoint"/>
                    </mxGeometry>
                </mxCell>
                <mxCell id="26" value="" style="endArrow=classic;html=1;curved=1;exitX=0.463;exitY=0.992;exitDx=0;exitDy=0;exitPerimeter=0;entryX=0.611;entryY=0.014;entryDx=0;entryDy=0;entryPerimeter=0;" parent="1" source="20" target="19" edge="1">
                    <mxGeometry width="50" height="50" relative="1" as="geometry">
                        <mxPoint x="1820" y="630" as="sourcePoint"/>
                        <mxPoint x="1870" y="580" as="targetPoint"/>
                    </mxGeometry>
                </mxCell>
                <mxCell id="28" value="GameHandler saves the data about the current level including SceneID and the CheckpointID" style="text;html=1;strokeColor=none;fillColor=none;align=center;verticalAlign=middle;whiteSpace=wrap;rounded=0;" parent="1" vertex="1">
                    <mxGeometry x="1800" y="660" width="190" height="30" as="geometry"/>
                </mxCell>
                <mxCell id="29" value="GameHandler takes data about the saved level" style="text;html=1;strokeColor=none;fillColor=none;align=center;verticalAlign=middle;whiteSpace=wrap;rounded=0;" parent="1" vertex="1">
                    <mxGeometry x="1640" y="570" width="140" height="30" as="geometry"/>
                </mxCell>
                <mxCell id="30" value="GameHandler&lt;br&gt;" style="rounded=0;whiteSpace=wrap;html=1;" parent="1" vertex="1">
                    <mxGeometry x="910" y="750" width="140" height="60" as="geometry"/>
                </mxCell>
                <mxCell id="31" value="" style="endArrow=classic;html=1;curved=1;entryX=0.5;entryY=0;entryDx=0;entryDy=0;exitX=0.5;exitY=1;exitDx=0;exitDy=0;" parent="1" source="13" target="30" edge="1">
                    <mxGeometry width="50" height="50" relative="1" as="geometry">
                        <mxPoint x="880" y="520" as="sourcePoint"/>
                        <mxPoint x="930" y="470" as="targetPoint"/>
                    </mxGeometry>
                </mxCell>
                <mxCell id="32" value="" style="endArrow=classic;html=1;curved=1;entryX=0.5;entryY=0;entryDx=0;entryDy=0;exitX=0.5;exitY=1;exitDx=0;exitDy=0;" parent="1" source="8" target="30" edge="1">
                    <mxGeometry width="50" height="50" relative="1" as="geometry">
                        <mxPoint x="1350" y="340" as="sourcePoint"/>
                        <mxPoint x="1040" y="750" as="targetPoint"/>
                    </mxGeometry>
                </mxCell>
                <mxCell id="33" value="LevelTeleportHandler fetch the last SceneID" style="text;html=1;strokeColor=none;fillColor=none;align=center;verticalAlign=middle;whiteSpace=wrap;rounded=0;" parent="1" vertex="1">
                    <mxGeometry x="890" y="620" width="180" height="30" as="geometry"/>
                </mxCell>
            </root>
        </mxGraphModel>
    </diagram>
</mxfile>